{"asset":{"generator":"Khronos glTF Blender I/O v4.4.56","version":"2.0"},"extensionsUsed":["KHR_materials_specular","KHR_materials_ior","KHR_texture_transform"],"extensionsRequired":["KHR_texture_transform"],"scene":0,"scenes":[{"name":"Scene","nodes":[0,1,2]}],"nodes":[{"mesh":0,"name":"pine_sapling_medium_a_LOD0"},{"mesh":1,"name":"pine_sapling_medium_b_LOD0","translation":[6,0,0]},{"mesh":2,"name":"pine_sapling_medium_c_LOD0","translation":[11,0,0]}],"materials":[{"doubleSided":true,"extensions":{"KHR_materials_specular":{"specularFactor":0.03999999910593033},"KHR_materials_ior":{"ior":1.4500000476837158}},"name":"pine_sapling_medium_bark","normalTexture":{"extensions":{"KHR_texture_transform":{"offset":[0,0.9000000655651093],"scale":[1.2000000476837158,0.09999993443489075]}},"index":0},"pbrMetallicRoughness":{"baseColorTexture":{"extensions":{"KHR_texture_transform":{"offset":[0,0.9000000655651093],"scale":[1.2000000476837158,0.09999993443489075]}},"index":1},"metallicFactor":0,"metallicRoughnessTexture":{"extensions":{"KHR_texture_transform":{"offset":[0,0.9000000655651093],"scale":[1.2000000476837158,0.09999993443489075]}},"index":2}}},{"doubleSided":true,"extensions":{"KHR_materials_specular":{"specularFactor":0.019999999552965164},"KHR_materials_ior":{"ior":1.4500000476837158}},"name":"pine_sapling_medium_twig","normalTexture":{"index":3},"pbrMetallicRoughness":{"baseColorTexture":{"index":4},"metallicFactor":0,"metallicRoughnessTexture":{"index":5}}},{"doubleSided":true,"extensions":{"KHR_materials_specular":{"specularFactor":0.03999999910593033},"KHR_materials_ior":{"ior":1.4500000476837158}},"name":"pine_sapling_medium_dead_branches","normalTexture":{"index":6},"pbrMetallicRoughness":{"baseColorTexture":{"index":7},"metallicFactor":0,"metallicRoughnessTexture":{"index":8}}}],"meshes":[{"name":"NurbsPath.006","primitives":[{"attributes":{"POSITION":0,"NORMAL":1,"TEXCOORD_0":2},"indices":3,"material":0},{"attributes":{"POSITION":4,"NORMAL":5,"TEXCOORD_0":6},"indices":7,"material":1},{"attributes":{"POSITION":8,"NORMAL":9,"TEXCOORD_0":10},"indices":11,"material":2}]},{"name":"NurbsPath.007","primitives":[{"attributes":{"POSITION":12,"NORMAL":13,"TEXCOORD_0":14},"indices":15,"material":0},{"attributes":{"POSITION":16,"NORMAL":17,"TEXCOORD_0":18},"indices":19,"material":1},{"attributes":{"POSITION":20,"NORMAL":21,"TEXCOORD_0":22},"indices":23,"material":2}]},{"name":"NurbsPath.008","primitives":[{"attributes":{"POSITION":24,"NORMAL":25,"TEXCOORD_0":26},"indices":27,"material":0},{"attributes":{"POSITION":28,"NORMAL":29,"TEXCOORD_0":30},"indices":31,"material":1},{"attributes":{"POSITION":32,"NORMAL":33,"TEXCOORD_0":34},"indices":35,"material":2}]}],"textures":[{"sampler":0,"source":0},{"sampler":0,"source":1},{"sampler":0,"source":2},{"sampler":0,"source":3},{"sampler":0,"source":4},{"sampler":0,"source":5},{"sampler":0,"source":0},{"sampler":0,"source":1},{"sampler":0,"source":2}],"images":[{"mimeType":"image/jpeg","name":"pine_sapling_medium_bark_nor_gl","uri":"textures/pine_sapling_medium_bark_nor_gl_1k.jpg"},{"mimeType":"image/jpeg","name":"pine_sapling_medium_bark_diff","uri":"textures/pine_sapling_medium_bark_diff_1k.jpg"},{"mimeType":"image/jpeg","name":"pine_sapling_medium_bark_rough","uri":"textures/pine_sapling_medium_bark_arm_1k.jpg"},{"mimeType":"image/jpeg","name":"pine_sapling_medium_twig_nor_gl","uri":"textures/pine_sapling_medium_twig_nor_gl_1k.jpg"},{"mimeType":"image/jpeg","name":"pine_sapling_medium_twig_diff","uri":"textures/pine_sapling_medium_twig_diff_1k.jpg"},{"mimeType":"image/jpeg","name":"pine_sapling_medium_twig_rough","uri":"textures/pine_sapling_medium_twig_arm_1k.jpg"}],"accessors":[{"bufferView":0,"componentType":5126,"count":1045,"type":"VEC3","min":[-2.150264263153076,-0.0006132980925031006,-1.7671302556991577],"max":[2.031151056289673,9.819953918457031,1.8079913854599]},{"bufferView":1,"componentType":5126,"count":1045,"type":"VEC3"},{"bufferView":2,"componentType":5126,"count":1045,"type":"VEC2"},{"bufferView":3,"componentType":5125,"count":4467,"type":"SCALAR"},{"bufferView":4,"componentType":5126,"count":5667,"type":"VEC3","min":[-2.5637569427490234,1.2317516803741455,-2.1467905044555664],"max":[2.5510141849517822,11.236124038696289,2.478677272796631]},{"bufferView":5,"componentType":5126,"count":5667,"type":"VEC3"},{"bufferView":6,"componentType":5126,"count":5667,"type":"VEC2"},{"bufferView":7,"componentType":5125,"count":29733,"type":"SCALAR"},{"bufferView":8,"componentType":5126,"count":826,"type":"VEC3","min":[-0.7635918855667114,-0.2043025940656662,-0.773253321647644],"max":[0.6569836139678955,1.8594019412994385,0.7495068311691284]},{"bufferView":9,"componentType":5126,"count":826,"type":"VEC3"},{"bufferView":10,"componentType":5126,"count":826,"type":"VEC2"},{"bufferView":11,"componentType":5125,"count":4422,"type":"SCALAR"},{"bufferView":12,"componentType":5126,"count":937,"type":"VEC3","min":[-1.8120967149734497,-0.0004480082425288856,-2.1022543907165527],"max":[2.069227457046509,8.203908920288086,2.1976733207702637]},{"bufferView":13,"componentType":5126,"count":937,"type":"VEC3"},{"bufferView":14,"componentType":5126,"count":937,"type":"VEC2"},{"bufferView":15,"componentType":5125,"count":4215,"type":"SCALAR"},{"bufferView":16,"componentType":5126,"count":5704,"type":"VEC3","min":[-2.3586671352386475,0.4077777862548828,-2.5242228507995605],"max":[2.331322431564331,8.873212814331055,2.826343059539795]},{"bufferView":17,"componentType":5126,"count":5704,"type":"VEC3"},{"bufferView":18,"componentType":5126,"count":5704,"type":"VEC2"},{"bufferView":19,"componentType":5125,"count":29454,"type":"SCALAR"},{"bufferView":20,"componentType":5126,"count":829,"type":"VEC3","min":[-0.7149085998535156,-0.20581641793251038,-0.8011369109153748],"max":[0.5445100665092468,1.4087837934494019,0.8412186503410339]},{"bufferView":21,"componentType":5126,"count":829,"type":"VEC3"},{"bufferView":22,"componentType":5126,"count":829,"type":"VEC2"},{"bufferView":23,"componentType":5125,"count":4371,"type":"SCALAR"},{"bufferView":24,"componentType":5126,"count":858,"type":"VEC3","min":[-1.1752451658248901,-0.0006718558724969625,-1.0749661922454834],"max":[1.1577491760253906,5.835085868835449,1.1827555894851685]},{"bufferView":25,"componentType":5126,"count":858,"type":"VEC3"},{"bufferView":26,"componentType":5126,"count":858,"type":"VEC2"},{"bufferView":27,"componentType":5125,"count":4401,"type":"SCALAR"},{"bufferView":28,"componentType":5126,"count":5133,"type":"VEC3","min":[-1.8827624320983887,0.6082921028137207,-1.5946828126907349],"max":[1.8624471426010132,6.764074802398682,1.871886968612671]},{"bufferView":29,"componentType":5126,"count":5133,"type":"VEC3"},{"bufferView":30,"componentType":5126,"count":5133,"type":"VEC2"},{"bufferView":31,"componentType":5125,"count":30270,"type":"SCALAR"},{"bufferView":32,"componentType":5126,"count":799,"type":"VEC3","min":[-0.6862279772758484,-0.2115684449672699,-0.8251993656158447],"max":[0.45334377884864807,1.0725094079971313,0.8711196184158325]},{"bufferView":33,"componentType":5126,"count":799,"type":"VEC3"},{"bufferView":34,"componentType":5126,"count":799,"type":"VEC2"},{"bufferView":35,"componentType":5125,"count":4218,"type":"SCALAR"}],"bufferViews":[{"buffer":0,"byteOffset":0,"byteLength":12540},{"buffer":0,"byteOffset":12540,"byteLength":12540},{"buffer":0,"byteOffset":25080,"byteLength":8360},{"buffer":0,"byteOffset":33440,"byteLength":17868},{"buffer":0,"byteOffset":51308,"byteLength":68004},{"buffer":0,"byteOffset":119312,"byteLength":68004},{"buffer":0,"byteOffset":187316,"byteLength":45336},{"buffer":0,"byteOffset":232652,"byteLength":118932},{"buffer":0,"byteOffset":351584,"byteLength":9912},{"buffer":0,"byteOffset":361496,"byteLength":9912},{"buffer":0,"byteOffset":371408,"byteLength":6608},{"buffer":0,"byteOffset":378016,"byteLength":17688},{"buffer":0,"byteOffset":395704,"byteLength":11244},{"buffer":0,"byteOffset":406948,"byteLength":11244},{"buffer":0,"byteOffset":418192,"byteLength":7496},{"buffer":0,"byteOffset":425688,"byteLength":16860},{"buffer":0,"byteOffset":442548,"byteLength":68448},{"buffer":0,"byteOffset":510996,"byteLength":68448},{"buffer":0,"byteOffset":579444,"byteLength":45632},{"buffer":0,"byteOffset":625076,"byteLength":117816},{"buffer":0,"byteOffset":742892,"byteLength":9948},{"buffer":0,"byteOffset":752840,"byteLength":9948},{"buffer":0,"byteOffset":762788,"byteLength":6632},{"buffer":0,"byteOffset":769420,"byteLength":17484},{"buffer":0,"byteOffset":786904,"byteLength":10296},{"buffer":0,"byteOffset":797200,"byteLength":10296},{"buffer":0,"byteOffset":807496,"byteLength":6864},{"buffer":0,"byteOffset":814360,"byteLength":17604},{"buffer":0,"byteOffset":831964,"byteLength":61596},{"buffer":0,"byteOffset":893560,"byteLength":61596},{"buffer":0,"byteOffset":955156,"byteLength":41064},{"buffer":0,"byteOffset":996220,"byteLength":121080},{"buffer":0,"byteOffset":1117300,"byteLength":9588},{"buffer":0,"byteOffset":1126888,"byteLength":9588},{"buffer":0,"byteOffset":1136476,"byteLength":6392},{"buffer":0,"byteOffset":1142868,"byteLength":16872}],"samplers":[{"magFilter":9729,"minFilter":9987}],"buffers":[{"uri":"pines.bin","byteLength":1159740}]}